<svg width="527" height="130" viewBox="0 0 527 130" xmlns="http://www.w3.org/2000/svg" xmlns:xlink="http://www.w3.org/1999/xlink"><defs><path id="a" d="M0 148h534.67V.4H0z"/></defs><g transform="translate(-4 -10.4)" fill="none" fill-rule="evenodd"><path d="M268.074 112.81h8.735c3.47 0 6.28 1.733 6.28 6.38 0 3.187-1.43 5.65-4.13 6.066v.07c2.46.24 3.74 1.594 3.88 5.06.03 1.6.07 3.542.14 5.03.06 1.21.65 1.804 1.17 2.147h-4.47c-.39-.446-.56-1.212-.67-2.183-.14-1.49-.11-2.88-.17-4.68-.07-2.704-.91-3.884-3.61-3.884h-3.22v10.747h-3.96V112.81zm7.108 11.025c2.534 0 3.955-1.525 3.955-4.02 0-2.638-1.142-4.026-3.745-4.026h-3.364v8.04h3.154zm22.605-11.025h4.816l7.178 18.445h.08V112.81h3.75v24.753h-4.82l-7.18-18.928h-.06v18.928h-3.75m35.67-24.753h5.07l6.52 24.753h-4.12l-1.52-6.065h-7.25l-1.59 6.065h-4.13l7.04-24.754zm5.27 15.534l-2.84-12.207h-.07l-2.94 12.207h5.86zm23.19-12.207h-5.89v-3.328h15.64v3.32h-5.79v21.42h-3.95" fill="#FFF"/><mask id="b" fill="#fff"><use xlink:href="#a"/></mask><path fill="#FFF" mask="url(#b)" d="M384.833 137.567h3.948V112.81h-3.94m18.37 12.38c0-8.844 2.5-12.864 8.19-12.864 5.69 0 8.19 4.02 8.19 12.863 0 8.83-2.5 12.86-8.19 12.86-5.68 0-8.18-4.03-8.18-12.87m12.42-.11c0-8.33-1.87-9.78-4.23-9.78-2.35 0-4.23 1.45-4.23 9.77 0 8.53 1.88 9.98 4.23 9.98 2.36 0 4.24-1.46 4.24-9.99m18.54-12.28H439l7.18 18.44h.065V112.8h3.744v24.754h-4.82l-7.18-18.927h-.08v18.93h-3.75m35.67-24.75h5.062l6.52 24.75h-4.13l-1.525-6.063h-7.25l-1.59 6.065h-4.14l7.036-24.76zm5.27 15.532l-2.838-12.21h-.078l-2.947 12.2h5.86zm18.69-15.54h3.95v21.42h9.564v3.33H493.8M179.11 37.05v-5.42h-3.257c-.97 0-1.73.324-2.38.976-.647.65-.866 1.4-.866 2.27v50.95c0 .87.218 1.62.865 2.27.65.65 1.41.976 2.384.976.87 0 1.625-.32 2.275-.974.65-.65.98-1.406.98-2.273v-2.82h9.75v2.82c0 3.576-1.3 6.72-3.79 9.21-2.49 2.498-5.63 3.797-9.21 3.797-3.68 0-6.82-1.3-9.21-3.796-2.49-2.49-3.79-5.64-3.79-9.213V34.88c0-3.58 1.3-6.724 3.8-9.215 2.39-2.493 5.53-3.794 9.22-3.794h13.01v15.18h-9.75zm50.087 25.475c.65.86 1.406 1.95 2.06 3.25.65 1.3.976 2.922.976 4.874v27.1h-9.75v-27.1c0-.87-.328-1.63-.98-2.28-.65-.65-1.407-.98-2.275-.98h-3.253v30.35h-9.755V21.87h13.01c3.468 0 6.506 1.083 9.106 3.575 2.6 2.5 3.906 5.54 3.906 9.44V54.4c0 3.04-1.087 5.636-3.036 8.132m-7.7-29.92c-.43-.65-1.3-1.082-2.273-1.082h-3.252v26.12h3.26c.87 0 1.63-.32 2.28-.973.66-.647.98-1.3.98-2.277V34.89c0-.87-.32-1.74-.98-2.277m29.82 65.148h9.76V21.88h-9.75m36.43 55.83v8.13c0 .87.22 1.624.87 2.276.65.65 1.52.98 2.39.98s1.73-.325 2.38-.975c.66-.65.87-1.4.87-2.27V73.59L278 46.487V33.8c0-3.686 1.3-6.827 3.792-9.323 2.495-2.386 5.53-3.688 9.215-3.688 3.684 0 6.72 1.3 9.213 3.68 2.495 2.49 3.797 5.63 3.797 9.32v8.13h-9.758V33.8c0-.976-.22-1.735-.88-2.384-.65-.65-1.52-.868-2.38-.868-.87 0-1.74.218-2.39.868-.65.65-.87 1.408-.87 2.383v10.07L304 70.97v14.86c0 3.58-1.3 6.72-3.796 9.21-2.49 2.49-5.53 3.79-9.21 3.79-3.69 0-6.72-1.31-9.22-3.8-2.49-2.496-3.79-5.64-3.79-9.217V77.7h9.753zm35.35 20.05h9.76V21.88h-9.76m36.43 55.83v8.13c0 .87.22 1.623.87 2.275.65.65 1.52.98 2.39.98.87 0 1.73-.324 2.38-.974.65-.65.87-1.4.87-2.27V73.59L349.8 46.487V33.8c0-3.686 1.3-6.827 3.79-9.323 2.5-2.386 5.53-3.688 9.22-3.688 3.683 0 6.72 1.3 9.21 3.68 2.5 2.49 3.796 5.63 3.796 9.32v8.13h-9.76V33.8c0-.976-.215-1.735-.866-2.384-.65-.65-1.513-.868-2.38-.868-.87 0-1.74.218-2.39.868-.644.65-.86 1.408-.86 2.383v10.07l16.26 27.1v14.86c0 3.58-1.3 6.72-3.796 9.21-2.49 2.49-5.524 3.79-9.21 3.79-3.69 0-6.72-1.31-9.22-3.8-2.49-2.5-3.79-5.64-3.79-9.22V77.7h9.758zm58.2-7.696v27.75H408V33.8c0-3.684 1.3-6.825 3.79-9.32 2.39-2.385 5.533-3.687 9.22-3.687 3.58 0 6.72 1.302 9.21 3.687 2.5 2.495 3.8 5.636 3.8 9.32v63.96h-9.76V70.01h-6.51zm6.51-9.757v-26.45c0-.975-.32-1.734-.98-2.383-.65-.65-1.4-.87-2.27-.87-.97 0-1.74.22-2.39.87-.64.643-.86 1.402-.86 2.38v26.45h6.51zm29.38 37.508h9.76V21.88h-9.76m53.23 62.874c0 3.683-1.3 6.72-3.8 9.216-2.5 2.492-5.64 3.79-9.21 3.79h-13.01V21.877h13.01c3.58 0 6.72 1.3 9.22 3.797 2.5 2.492 3.8 5.634 3.8 9.212v49.87zm-16.26-53.12v56.37h3.25c.87 0 1.63-.217 2.28-.864.65-.652.98-1.517.98-2.386v-49.87c0-.864-.32-1.623-.97-2.276-.65-.65-1.41-.974-2.28-.974h-3.25zM109.32 64.22h24.503c-4.79-27.01-26.09-48.306-53.1-53.09v24.503c13.78 3.95 24.64 14.81 28.59 28.588M29.1 87.27H4.594c4.786 27.01 26.078 48.305 53.09 53.092v-24.51c-13.78-3.957-24.635-14.806-28.586-28.587m28.586-51.63V11.13C30.67 15.914 9.38 37.21 4.594 64.22H29.1c3.95-13.778 14.803-24.636 28.584-28.588m23.04 80.218v24.504c27.015-4.787 48.312-26.08 53.093-53.09h-24.5c-3.955 13.78-14.808 24.63-28.594 28.586m449.655-85.366c0-4.427-3.598-8.026-8.027-8.026-4.44 0-8.06 3.6-8.06 8.026 0 4.45 3.62 8.07 8.07 8.07 4.43 0 8.03-3.62 8.03-8.07m-.99 0c0 3.953-3.12 7.073-7.03 7.073-3.93 0-7.07-3.12-7.07-7.073 0-3.906 3.14-7.028 7.07-7.028 3.92 0 7.04 3.122 7.04 7.028"/><path d="M526.065 28.593c0-1.456-.79-2.328-3.12-2.328h-3.847v8.795h.997v-4.057h2.062l2.516 4.057h1.288l-2.66-4.057c1.56-.04 2.77-.684 2.77-2.41m-1-.02c0 1.64-1.99 1.432-3.24 1.432h-1.73v-2.742h2.6c1.08 0 2.37.164 2.37 1.31M163.22 137.567h3.95V112.81h-3.95m18.96 0H187l7.173 18.445h.07V112.81h3.746v24.753h-4.82l-7.18-18.928h-.07v18.928h-3.75m35.05-21.426h-5.9v-3.328h15.63v3.32h-5.79v21.42h-3.96m23.09-24.75h13.38v3.32h-9.43V123h8.88v3.328h-8.88v7.904h9.71v3.327H240.3" fill="#FFF" mask="url(#b)"/></g></svg>